<?xml version="1.0" encoding="iso-8859-1"?>
<!-- Generator: Adobe Illustrator 21.0.0, SVG Export Plug-In . SVG Version: 6.00 Build 0)  -->
<svg version="1.1" id="Layer_1" xmlns="http://www.w3.org/2000/svg" xmlns:xlink="http://www.w3.org/1999/xlink" x="0px" y="0px"
	 viewBox="0 0 346 210" style="enable-background:new 0 0 346 210;" xml:space="preserve">
<path style="fill:#333333;" d="M316.613,61H24.387C19.755,61,16,57.245,16,52.613V26.387C16,21.755,19.755,18,24.387,18h292.225
	c4.632,0,8.387,3.755,8.387,8.387v26.225C325,57.245,321.245,61,316.613,61z"/>
<path style="fill:#D55741;" d="M85.999,191H24.387c-4.632,0-8.387-3.755-8.387-8.387V91.387C16,86.755,19.755,83,24.387,83h61.611
	c4.632,0,8.387,3.755,8.387,8.387v91.225C94.386,187.245,90.631,191,85.999,191z"/>
<path style="fill:#333333;" d="M316.613,191H128.902c-4.632,0-8.387-3.755-8.387-8.387V91.387c0-4.632,3.755-8.387,8.387-8.387
	h187.711c4.632,0,8.387,3.755,8.387,8.387v91.225C325,187.245,321.245,191,316.613,191z"/>
<circle style="fill:#D55741;" cx="15" cy="376" r="60"/>
<circle style="fill:#333333;" cx="165" cy="376" r="60"/>
</svg>
