<?xml version="1.0" encoding="iso-8859-1"?>
<!-- Generator: Adobe Illustrator 21.0.0, SVG Export Plug-In . SVG Version: 6.00 Build 0)  -->
<svg version="1.1" id="Layer_1" xmlns="http://www.w3.org/2000/svg" xmlns:xlink="http://www.w3.org/1999/xlink" x="0px" y="0px"
	 viewBox="0 0 512 512" style="enable-background:new 0 0 512 512;" xml:space="preserve">
<path style="fill:#D55741;" d="M256,1.5c108.756,0,205.494,69.108,240.754,171.99l-72.226,24.753
	C399.846,126.225,332.129,77.85,256,77.85V1.5z"/>
<path style="fill:#577AEB;" d="M424.46,446.766c-28.459,25.131-62.18,43.577-98.692,53.985l-20.93-73.425
	c25.559-7.286,49.163-20.197,69.085-37.789L424.46,446.766z"/>
<path style="fill:#DA7247;" d="M35.891,383.759c-12.614-21.732-21.94-45.212-27.675-69.676l74.335-17.425
	c4.014,17.125,10.542,33.561,19.372,48.773L35.891,383.759z"/>
<path style="fill:#7FEBB2;" d="M494.119,345.831c-14.645,38.82-38.559,73.471-69.659,100.934l-50.538-57.23
	c21.77-19.225,38.51-43.48,48.761-70.654L494.119,345.831z"/>
<path style="fill:#AAAAAA;" d="M325.767,500.75c-30.224,8.616-61.782,11.558-93.078,8.68l6.993-76.029
	c21.907,2.015,43.998-0.045,65.155-6.076L325.767,500.75z"/>
<path style="fill:#6BDCEB;" d="M149.412,487.104c-24.136-11.132-46.38-25.976-65.921-43.993l51.753-56.133
	c13.679,12.612,29.25,23.003,46.145,30.795L149.412,487.104z"/>
<path style="fill:#76EA7A;" d="M65.899,86.79C78,73.195,91.524,60.938,106.24,50.228l44.928,61.732
	c-10.301,7.497-19.768,16.077-28.238,25.594L65.899,86.79z"/>
<path style="fill:#D4E965;" d="M8.217,314.083c-5.158-22.005-7.362-44.599-6.554-67.186l76.301,2.731
	c-0.566,15.811,0.977,31.627,4.588,47.03L8.217,314.083z"/>
<path style="fill:#8BC982;" d="M83.491,443.112c-18.751-17.287-34.796-37.295-47.599-59.352l66.033-38.328
	c8.962,15.44,20.194,29.446,33.32,41.547L83.491,443.112z"/>
<path style="fill:#B9B797;" d="M137.684,30.674c10.231-5.372,20.816-10.041,31.682-13.975l25.99,71.79
	c-7.606,2.754-15.016,6.022-22.178,9.783L137.684,30.674z"/>
<path style="fill:#6DD9C6;" d="M11.305,186.04c5.446-19.046,13.096-37.392,22.797-54.664l66.57,37.387
	c-6.79,12.09-12.146,24.932-15.958,38.265L11.305,186.04z"/>
<path style="fill:#7AEBC2;" d="M230.054,2.826C238.675,1.943,247.335,1.5,256,1.5v76.35c-6.066,0-12.128,0.31-18.162,0.928
	L230.054,2.826z"/>
<path style="fill:#61AEEB;" d="M106.24,50.228c9.993-7.273,20.502-13.808,31.444-19.553l35.495,67.598
	c-7.66,4.022-15.016,8.597-22.011,13.687L106.24,50.228z"/>
<path style="fill:#D86444;" d="M169.366,16.699c10.211-3.697,20.649-6.736,31.248-9.1l16.616,74.52
	c-7.42,1.654-14.726,3.782-21.874,6.37L169.366,16.699z"/>
<path style="fill:#E4A755;" d="M34.101,131.376c8.965-15.962,19.626-30.911,31.798-44.586l57.03,50.763
	c-8.52,9.572-15.983,20.036-22.259,31.21L34.101,131.376z"/>
<path style="fill:#E8C05C;" d="M496.754,173.49c19.194,56.005,18.262,116.949-2.635,172.342l-71.436-26.949
	c14.628-38.774,15.28-81.436,1.844-120.639L496.754,173.49z"/>
<path style="fill:#E8DF60;" d="M200.615,7.6c9.711-2.165,19.542-3.759,29.44-4.774l7.784,75.952
	c-6.929,0.71-13.81,1.826-20.608,3.342L200.615,7.6z"/>
<path style="fill:#75EBD3;" d="M1.663,246.897c0.737-20.601,3.975-41.037,9.642-60.858l73.409,20.988
	c-3.967,13.874-6.233,28.179-6.749,42.6L1.663,246.897z"/>
<path style="fill:#A0E96E;" d="M232.689,509.43c-28.827-2.652-56.99-10.202-83.277-22.326l31.976-69.331
	c18.401,8.487,38.115,13.772,58.294,15.628L232.689,509.43z"/>
</svg>
