<?xml version="1.0" encoding="utf-8"?>
<svg xmlns="http://www.w3.org/2000/svg" xmlns:xlink="http://www.w3.org/1999/xlink" style="margin: auto; background: rgb(255, 255, 255); display: block; z-index: 1; position: relative; shape-rendering: auto;" width="1440" height="796" preserveAspectRatio="xMidYMid" viewBox="0 0 1440 796">
<g transform="translate(720,398) scale(1,1) translate(-720,-398)"><g transform="translate(1459.5850915836463,-175.68100221918587) scale(100)" opacity="0.4">
  <path d="M8.892 0 C8.892 2.1527999999999996 8.471704924039788 5.4271859669629885 6.949445445501389 6.949445445501388 S2.1528 8.892 5.444779669009132e-16 8.892 S-5.4271859669629885 8.471704924039788 -6.949445445501388 6.949445445501389 S-8.892 2.1528000000000005 -8.892 1.0889559338018264e-15 S-8.47170492403979 -5.427185966962988 -6.94944544550139 -6.949445445501388 S-2.1528000000000014 -8.892 -1.6334339007027395e-15 -8.892 S5.427185966962988 -8.47170492403979 6.949445445501387 -6.94944544550139 S8.892 -2.152800000000002 8.892 -2.1779118676036528e-15" fill="#dddddd" stroke-width="0">
    <animateTransform attributeName="transform" type="rotate" dur="10s" repeatCount="indefinite" values="0;90"></animateTransform>
  </path>
</g><g transform="translate(1607.5021099003757,-290.4172026630231) scale(100)" opacity="0.4">
  <path d="M10.6704 0 C10.6704 2.58336 10.166045908847748 6.512623160355588 8.339334534601669 8.339334534601667 S2.5833600000000003 10.6704 6.533735602810959e-16 10.6704 S-6.512623160355588 10.166045908847748 -8.339334534601667 8.339334534601669 S-10.6704 2.583360000000001 -10.6704 1.3067471205621919e-15 S-10.16604590884775 -6.512623160355587 -8.33933453460167 -8.339334534601667 S-2.5833600000000017 -10.6704 -1.960120680843288e-15 -10.6704 S6.512623160355585 -10.16604590884775 8.339334534601665 -8.33933453460167 S10.6704 -2.5833600000000025 10.6704 -2.6134942411243838e-15" fill="#ffffff" stroke-width="0">
    <animateTransform attributeName="transform" type="rotate" dur="5s" repeatCount="indefinite" values="0;90"></animateTransform>
  </path>
</g></g>
</svg>