<?xml version="1.0" encoding="utf-8"?>
<svg xmlns="http://www.w3.org/2000/svg" xmlns:xlink="http://www.w3.org/1999/xlink" style="margin: auto; background: none; display: block; shape-rendering: auto;" width="54px" height="54px" viewBox="0 0 100 100" preserveAspectRatio="xMidYMid">
 <g transform="translate(50 50)">  <g transform="translate(-19 -19) scale(0.6)"> <g>
<animateTransform attributeName="transform" type="rotate" values="0;36" keyTimes="0;1" dur="0.4545454545454546s" begin="0s" repeatCount="indefinite"></animateTransform><path d="M26.303903972368456 16.40440903575679 L31.960758221860836 22.06126328524917 L22.06126328524917 31.960758221860832 L16.40440903575679 26.303903972368452 A31 31 0 0 1 11.63803562826154 28.732492525280765 L11.63803562826154 28.732492525280765 L12.889511348583387 36.63399925004187 L-0.9381254197485422 38.8240817606051 L-2.1896011400703896 30.922575035843998 A31 31 0 0 1 -7.473166763559049 30.085740451649787 L-7.473166763559049 30.085740451649787 L-11.105090761475422 37.21379264515673 L-23.57918210011257 30.857925648803082 L-19.947258102196194 23.72987345529614 A31 31 0 0 1 -23.729873455296136 19.947258102196198 L-23.729873455296136 19.947258102196198 L-30.85792564880308 23.579182100112572 L-37.21379264515673 11.105090761475436 L-30.085740451649784 7.473166763559061 A31 31 0 0 1 -30.922575035843998 2.1896011400703883 L-30.922575035843998 2.1896011400703883 L-38.8240817606051 0.9381254197485422 L-36.63399925004187 -12.889511348583374 L-28.73249252528077 -11.638035628261528 A31 31 0 0 1 -26.303903972368452 -16.404409035756792 L-26.303903972368452 -16.404409035756792 L-31.960758221860832 -22.061263285249172 L-22.06126328524918 -31.96075822186083 L-16.4044090357568 -26.30390397236845 A31 31 0 0 1 -11.638035628261536 -28.732492525280765 L-11.638035628261536 -28.732492525280765 L-12.889511348583383 -36.63399925004187 L0.9381254197485305 -38.8240817606051 L2.189601140070379 -30.922575035843998 A31 31 0 0 1 7.4731667635590515 -30.085740451649784 L7.4731667635590515 -30.085740451649784 L11.105090761475424 -37.21379264515673 L23.579182100112565 -30.85792564880309 L19.94725810219619 -23.729873455296143 A31 31 0 0 1 23.729873455296133 -19.9472581021962 L23.729873455296133 -19.9472581021962 L30.857925648803075 -23.579182100112575 L37.21379264515673 -11.105090761475441 L30.085740451649784 -7.473166763559065 A31 31 0 0 1 30.922575035843998 -2.1896011400703923 L30.922575035843998 -2.1896011400703923 L38.8240817606051 -0.9381254197485471 L36.633999250041875 12.88951134858337 L28.732492525280772 11.638035628261525 A31 31 0 0 1 26.303903972368456 16.40440903575679 M0 -20A20 20 0 1 0 0 20 A20 20 0 1 0 0 -20" fill="#d0d0d0"></path></g></g> <g transform="translate(19 19) scale(0.6)"> <g>
<animateTransform attributeName="transform" type="rotate" values="36;0" keyTimes="0;1" dur="0.4545454545454546s" begin="-0.2272727272727273s" repeatCount="indefinite"></animateTransform><path d="M-26.303903972368452 -16.404409035756792 L-31.960758221860832 -22.061263285249172 L-22.06126328524918 -31.96075822186083 L-16.4044090357568 -26.30390397236845 A31 31 0 0 1 -11.638035628261536 -28.732492525280765 L-11.638035628261536 -28.732492525280765 L-12.889511348583383 -36.63399925004187 L0.9381254197485305 -38.8240817606051 L2.189601140070379 -30.922575035843998 A31 31 0 0 1 7.4731667635590515 -30.085740451649784 L7.4731667635590515 -30.085740451649784 L11.105090761475424 -37.21379264515673 L23.579182100112565 -30.85792564880309 L19.94725810219619 -23.729873455296143 A31 31 0 0 1 23.729873455296133 -19.9472581021962 L23.729873455296133 -19.9472581021962 L30.857925648803075 -23.579182100112575 L37.21379264515673 -11.105090761475441 L30.085740451649784 -7.473166763559065 A31 31 0 0 1 30.922575035843998 -2.1896011400703923 L30.922575035843998 -2.1896011400703923 L38.8240817606051 -0.9381254197485471 L36.633999250041875 12.88951134858337 L28.732492525280772 11.638035628261525 A31 31 0 0 1 26.303903972368456 16.40440903575679 L26.303903972368456 16.40440903575679 L31.96075822186084 22.06126328524917 L22.061263285249186 31.96075822186082 L16.404409035756803 26.303903972368445 A31 31 0 0 1 11.63803562826154 28.732492525280765 L11.63803562826154 28.732492525280765 L12.889511348583389 36.63399925004187 L-0.9381254197485256 38.8240817606051 L-2.189601140070375 30.922575035843998 A31 31 0 0 1 -7.473166763559075 30.085740451649784 L-7.473166763559075 30.085740451649784 L-11.105090761475452 37.21379264515672 L-23.579182100112586 30.857925648803068 L-19.94725810219621 23.729873455296126 A31 31 0 0 1 -23.729873455296147 19.947258102196184 L-23.729873455296147 19.947258102196184 L-30.857925648803093 23.579182100112554 L-37.21379264515673 11.105090761475413 L-30.085740451649787 7.473166763559042 A31 31 0 0 1 -30.922575035843998 2.1896011400703688 L-30.922575035843998 2.1896011400703688 L-38.8240817606051 0.9381254197485178 L-36.63399925004186 -12.889511348583397 L-28.73249252528076 -11.638035628261546 A31 31 0 0 1 -26.303903972368442 -16.40440903575681 M0 -20A20 20 0 1 0 0 20 A20 20 0 1 0 0 -20" fill="#adadad"></path></g></g></g>
<!-- [ldio] generated by https://loading.io/ --></svg>