<?xml version="1.0" encoding="utf-8"?>
<svg viewBox="0 0 100 100" xmlns="http://www.w3.org/2000/svg" style="height: 100%; width: 100%; background: none; shape-rendering: auto;" width="128px" height="128px"><g class="ldl-scale" style="transform-origin: 50% 50%; transform: rotate(0deg) scale(1, 1);"><g class="ldl-ani"><g class="ldl-layer"><g class="ldl-ani" style="transform-origin: 50px 50px; transform: rotate(0deg); animation: 1.11111s linear -0.602778s infinite normal forwards running spin-565f28d5-19ae-4315-858b-7fee6b91d19b;"><path stroke-miterlimit="10" stroke-linecap="round" stroke-width="5" stroke="#a0c8d7" fill="none" d="M50 65c8.284 0 15-6.716 15-15 0-8.284-6.716-15-15-15" style="stroke: rgb(160, 200, 215);"></path></g></g><g class="ldl-layer"><g class="ldl-ani" style="transform-origin: 50px 50px; transform: rotate(0deg); animation: 1.11111s linear -0.772222s infinite normal forwards running spin-565f28d5-19ae-4315-858b-7fee6b91d19b;"><path stroke-miterlimit="10" stroke-linecap="round" stroke-width="5" stroke="#abbd81" fill="none" d="M69.617 61.028A22.397 22.397 0 0 0 72.5 50c0-12.426-10.074-22.5-22.5-22.5" style="stroke: rgb(171, 189, 129);"></path></g></g><g class="ldl-layer"><g class="ldl-ani" style="transform-origin: 50px 50px; transform: rotate(0deg); animation: 1.11111s linear -0.941667s infinite normal forwards running spin-565f28d5-19ae-4315-858b-7fee6b91d19b;"><path stroke-miterlimit="10" stroke-linecap="round" stroke-width="5" stroke="#f8b26a" fill="none" d="M20.026 51.256C20.684 67.242 33.852 80 50 80c16.569 0 30-13.431 30-30S66.569 20 50 20" style="stroke: rgb(248, 178, 106);"></path></g></g><g class="ldl-layer"><g class="ldl-ani" style="transform-origin: 50px 50px; transform: rotate(0deg); animation: 1.11111s linear -1.11111s infinite normal forwards running spin-565f28d5-19ae-4315-858b-7fee6b91d19b;"><path stroke-miterlimit="10" stroke-linecap="round" stroke-width="5" stroke="#e15b64" fill="none" d="M27.499 19.998C18.391 26.84 12.5 37.732 12.5 50c0 20.711 16.789 37.5 37.5 37.5S87.5 70.711 87.5 50 70.711 12.5 50 12.5" style="stroke: rgb(225, 91, 100);"></path></g></g><metadata xmlns:d="https://loading.io/stock/">
<d:name>radial bar</d:name>
<d:tags>radial bar,circle,progress,process,ring,circular,curve,infographics</d:tags>
<d:license>by</d:license>
<d:slug>c9xuhq</d:slug>
</metadata></g></g><style id="spin-565f28d5-19ae-4315-858b-7fee6b91d19b" data-anikit="">@keyframes spin-565f28d5-19ae-4315-858b-7fee6b91d19b
{
  0% {
    animation-timing-function: cubic-bezier(0.5856,0.0703,0.4143,0.9297);
    transform: rotate(0deg);
  }
  100% {
    transform: rotate(360deg);
  }
}</style><!-- [ldio] generated by https://loading.io/ --></svg>