<?xml version="1.0" encoding="utf-8"?>
<!-- Generator: Adobe Illustrator 21.0.0, SVG Export Plug-In . SVG Version: 6.00 Build 0)  -->
<svg version="1.1" id="Layer_1" xmlns="http://www.w3.org/2000/svg" xmlns:xlink="http://www.w3.org/1999/xlink" x="0px" y="0px"
	 viewBox="0 0 285 30" enable-background="new 0 0 285 30" xml:space="preserve">
<path fill="none" d="M226.37793,3.23486c-0.16211,0.25195-0.36133,0.51123-0.59375,0.77344v0.51904h1.82031
	c-0.11523-0.34131-0.33594-0.7749-0.65918-1.29248H226.37793z"/>
<path fill="none" d="M202.07422,4.83356v-1.44h-2.22034l0.04553,0.02686C200.73468,3.91809,201.45831,4.38947,202.07422,4.83356z"/>
<polygon fill="none" points="96.58429,29.75983 96.58429,29.75983 96.58447,29.75977 "/>
<path fill="none" d="M274.50977,9.22217c0.06055-0.04395,0.16406-0.19775,0.16406-0.71973c0-0.87891-0.33008-1.7251-0.98145-2.51562
	l-0.04199-0.05176l0.01953-0.06396c0.24512-0.80957,0.51367-1.83691,0.79785-3.05469h-0.87109v6.50195
	c0.15625,0.00732,0.34277,0.01074,0.56055,0.01074C274.31445,9.31201,274.43359,9.27588,274.50977,9.22217z"/>
<path fill="none" d="M220.33203,3.23486c-0.32715,0.47266-0.68359,0.90625-1.06152,1.29248h1.82812
	c-0.1416-0.37207-0.3623-0.80566-0.65723-1.29248H220.33203z"/>
<polygon fill="none" points="137.15527,27.0293 136.56104,25.25684 135.97168,27.0293 "/>
<polygon fill="none" points="172.27051,27.0293 171.67578,25.25684 171.08691,27.0293 "/>
<path fill="none" d="M209.10547,24.39844c-0.38379,0-0.6709,0.14453-0.87793,0.44043
	c-0.21484,0.30566-0.32422,0.76855-0.32617,1.37695v0.2998c0,0.59766,0.1084,1.06348,0.32227,1.38477
	c0.20801,0.31055,0.49805,0.46191,0.88867,0.46191c0.38477,0,0.66992-0.14551,0.87207-0.44434
	c0.21289-0.30762,0.32129-0.77246,0.32422-1.38281v-0.29883c0-0.6123-0.1084-1.08105-0.32324-1.3916
	C209.77832,24.54395,209.49023,24.39844,209.10547,24.39844z"/>
<path fill="none" d="M197.76074,7.18701c-0.53027,0.65869-1.19922,1.30029-1.99316,1.91162h4.0957
	C199.00391,8.46777,198.29785,7.82666,197.76074,7.18701z"/>
<path fill="none" d="M117.16992,8.56348c0.96436-1.06934,1.75635-2.38037,2.35645-3.90137h-4.79492
	C115.33301,6.15674,116.15283,7.46777,117.16992,8.56348z"/>
<rect x="195.40332" y="10.87695" fill="none" width="4.60938" height="1.32178"/>
<path fill="none" d="M166.85449,5.61377v3.50928c1.22656-0.73584,2.09277-1.91504,2.57812-3.50928H166.85449z"/>
<rect x="251.32031" y="4.21533" fill="none" width="1.66797" height="0.67285"/>
<rect x="251.32031" y="6.55127" fill="none" width="1.66797" height="0.73047"/>
<rect x="278.15332" y="3.7251" fill="none" width="5.08496" height="0.96094"/>
<path fill="none" d="M174.93945,5.61377h-2.51465c0.51562,1.52637,1.36133,2.65186,2.51465,3.3501V5.61377z"/>
<path fill="none" d="M222.96582,4.2207l-0.80762,0.30664h1.4873V3.80273c-0.04297-0.0249-0.08984-0.05176-0.13965-0.08008
	l-0.16309-0.09326l0.14941-0.11426c0.0791-0.06055,0.18555-0.1543,0.31738-0.28027h-1.30469
	c0.22852,0.44629,0.36523,0.73145,0.41699,0.86914L222.96582,4.2207z"/>
<polygon fill="none" points="118.93945,27.0293 118.34473,25.25684 117.75586,27.0293 "/>
<rect x="251.32031" y="8.94482" fill="none" width="1.66797" height="0.75928"/>
<path fill="none" d="M160.22168,24.67188c-0.13867-0.13965-0.36328-0.21094-0.66504-0.21094h-0.88965v1.58789h0.89258
	c0.2832,0,0.50293-0.07031,0.65234-0.20801c0.14746-0.1377,0.21875-0.3252,0.21875-0.5752
	C160.43066,25.00879,160.3623,24.81445,160.22168,24.67188z"/>
<polygon fill="none" points="250.85254,27.0293 250.25781,25.25684 249.66797,27.0293 "/>
<path fill="none" d="M226.70801,9.42432l0.23145,0.02051c0.21582,0.01904,0.63477,0.02881,1.24316,0.02881
	c0.10547,0,0.10547-0.03076,0.10547-0.07715V8.4834h-2.50391v1.12988c0.39844,0.34229,0.9043,0.68604,1.50879,1.02441
	c-0.10254-0.27979-0.26172-0.61768-0.47363-1.00879L226.70801,9.42432z"/>
<path fill="#FFFFFF" d="M13.14453,0.52393H0.19482c-0.05518,0-0.08252,0.03711-0.0918,0.05273S0.0752,0.63428,0.10205,0.68213
	l0.64844,1.15674C1.1377,2.52832,1.86963,2.95654,2.66016,2.95654h2.79346v26.71729c0,0.05859,0.04785,0.10645,0.10645,0.10645
	H7.7793c0.05859,0,0.10645-0.04785,0.10645-0.10645V2.95654h2.79346c0.79102,0,1.52246-0.42822,1.90918-1.11768l0.64941-1.15625
	c0.02686-0.04834,0.0083-0.09033-0.00098-0.10596C13.22754,0.56055,13.19971,0.52393,13.14453,0.52393z"/>
<path fill="#FF3A1E" d="M22.80713,0.52393h-2.27246c-0.05127,0-0.09521,0.03662-0.10449,0.0874l-5.32764,29.1709
	c0.01807,0.03418,0.02783,0.03809,0.04199,0.03125l1.65527-0.84082c0.60645-0.30859,1.04053-0.8916,1.16211-1.56055L21.6709,7.01123
	l3.70947,20.40088c0.12158,0.66895,0.55566,1.25195,1.16162,1.56055l1.65527,0.84082
	c0.01367,0.00586,0.02441,0.00195,0.03125-0.00293L22.91211,0.61133C22.90283,0.56104,22.8584,0.52393,22.80713,0.52393z"/>
<path fill="#FFFFFF" d="M96.46143,29.78223l-5.32764-29.1709c-0.00928-0.05078-0.05322-0.0874-0.10449-0.0874h-2.27246
	c-0.05176,0-0.0957,0.03662-0.10498,0.0874l-5.32715,29.1709c0.01758,0.03418,0.02881,0.03809,0.04199,0.03125l1.65527-0.84082
	c0.60596-0.30859,1.04004-0.8916,1.16162-1.56055l3.70947-20.40088l3.70898,20.40088
	c0.12158,0.66895,0.55566,1.25195,1.16211,1.56055l1.65527,0.84082l0.16486-0.05365l0,0L96.46143,29.78223z"/>
<path fill="#FFFFFF" d="M36.84473,0.52393H34.625c-0.05859,0-0.10645,0.04785-0.10645,0.10645v29.08057
	c0,0.05859,0.04785,0.10645,0.10645,0.10645h2.21973c0.05859,0,0.10645-0.04785,0.10645-0.10645V0.63037
	C36.95117,0.57178,36.90332,0.52393,36.84473,0.52393z"/>
<path fill="#FFFFFF" d="M52.09668,0.52588C52.06006,0.52539,52.02393,0.5249,51.9873,0.5249
	c-1.69238,0-3.30176,0.66797-4.54248,1.8877c-1.29736,1.27588-2.0415,3.0415-2.0415,4.84473v15.78955
	c0,1.80371,0.74414,3.56934,2.0415,4.84473c1.24072,1.21973,2.8501,1.8877,4.54248,1.8877c0.03662,0,0.07275,0,0.10938-0.00098
	c3.56592-0.06055,6.4668-3.01172,6.4668-6.5791v-3.93457c0-0.83398-0.46338-1.58496-1.20947-1.95898l-1.1792-0.58984
	l-0.04199,0.02637v6.45703c0,1.14551-0.4585,2.21191-1.29053,3.00391c-0.83105,0.79199-1.91455,1.18945-3.06787,1.13965
	c-2.20898-0.10938-3.93994-1.98047-3.93994-4.26074V7.10498c0-1.14551,0.4585-2.21289,1.29053-3.00488
	c0.83105-0.79102,1.91211-1.19189,3.06787-1.13916c2.20898,0.10889,3.93994,1.98047,3.93994,4.26074v1.13574
	c0,0.83447,0.46338,1.58447,1.20947,1.95752l1.1792,0.58984l0.04199-0.02588V7.10498
	C58.56348,3.5376,55.6626,0.58594,52.09668,0.52588z"/>
<path fill="#FFFFFF" d="M71.81689,0.52588c-0.03662-0.00049-0.07275-0.00098-0.10938-0.00098
	c-1.69238,0-3.30176,0.66797-4.54248,1.88818c-1.29736,1.27539-2.0415,3.04102-2.0415,4.84424v15.78955
	c0,1.80273,0.74414,3.56836,2.0415,4.84473c1.24072,1.21973,2.8501,1.8877,4.54248,1.8877c0.03662,0,0.07275,0,0.10938-0.00098
	c3.56592-0.06055,6.4668-3.01172,6.4668-6.5791v-3.93457c0-0.83496-0.46338-1.58496-1.20996-1.95898l-1.17871-0.58984
	l-0.04199,0.02637v6.45703c0,1.14551-0.4585,2.21191-1.29053,3.00391c-0.83105,0.79199-1.91309,1.18945-3.06787,1.13965
	c-2.20898-0.10938-3.93994-1.98047-3.93994-4.26074V7.10498c0-1.14551,0.4585-2.21289,1.29053-3.00488
	c0.83105-0.79102,1.91406-1.19336,3.06738-1.13916c2.20947,0.10889,3.94043,1.98047,3.94043,4.26074v1.13574
	c0,0.83447,0.46338,1.58447,1.20947,1.95752l1.1792,0.58984l0.04199-0.02588V7.10498
	C78.28369,3.5376,75.38281,0.58594,71.81689,0.52588z"/>
<polygon fill="#FFFFFF" points="111.91797,29.3125 112.92969,29.3125 112.92969,24.21094 114.80566,24.21094 114.80566,23.43945 
	110.06787,23.43945 110.06787,24.21094 111.91797,24.21094 "/>
<path fill="#FFFFFF" d="M117.84717,23.43945l-2.1875,5.87305h1.07178l0.42041-1.26172h2.39258l0.42529,1.26172h1.0708
	l-2.19922-5.87305H117.84717z M117.40918,27.2793l0.93457-2.81152l0.94336,2.81152H117.40918z"/>
<rect x="122.8501" y="23.43945" fill="#FFFFFF" width="1.01172" height="5.87305"/>
<polygon fill="#FFFFFF" points="128.80322,23.43945 127.68262,28.26855 126.76367,23.43945 125.76465,23.43945 127.06787,29.3125 
	128.14014,29.3125 129.23535,24.81348 130.32959,29.3125 131.40186,29.3125 132.70361,23.43945 131.70605,23.43945 
	130.79053,28.2793 129.67383,23.43945 "/>
<path fill="#FFFFFF" d="M136.06201,23.43945l-2.18652,5.87305h1.0708l0.42041-1.26172h2.39355l0.42432,1.26172h1.07227
	l-2.19922-5.87305H136.06201z M135.625,27.2793l0.93506-2.81152l0.94287,2.81152H135.625z"/>
<polygon fill="#FFFFFF" points="140.98584,23.43945 140.98584,29.3125 141.99756,29.3125 141.99756,24.96289 144.64844,29.3125 
	145.71484,29.3125 145.71484,23.43945 144.70703,23.43945 144.70703,27.79688 142.05225,23.43945 "/>
<path fill="#FFFFFF" d="M152.10449,24.64551c0.23242-0.33594,0.58496-0.50586,1.04785-0.50586
	c0.41797,0,0.7373,0.10156,0.9502,0.30078c0.19238,0.18164,0.31152,0.45996,0.35645,0.82617h1.00781
	c-0.08203-0.58203-0.31348-1.04395-0.69043-1.37598c-0.40625-0.35449-0.95312-0.53516-1.62402-0.53516
	c-0.48438,0-0.91406,0.11426-1.27734,0.34082c-0.36328,0.22559-0.64746,0.55469-0.84277,0.97754
	c-0.19922,0.43359-0.30078,0.94043-0.30078,1.50488v0.37402c0,0.88574,0.21777,1.59082,0.64648,2.09473
	c0.4209,0.49707,1.0127,0.74902,1.75684,0.74902c0.68262,0,1.23926-0.18066,1.6543-0.53613
	c0.38086-0.33008,0.60742-0.78027,0.67285-1.33789h-1.01074c-0.04297,0.3457-0.16406,0.6123-0.3584,0.79297
	c-0.21582,0.19922-0.53809,0.30078-0.95801,0.30078c-0.47266,0-0.82715-0.17285-1.05371-0.51367
	c-0.21289-0.32715-0.32031-0.83789-0.32031-1.51953v-0.46387C151.7666,25.45215,151.87891,24.9707,152.10449,24.64551z"/>
<path fill="#FFFFFF" d="M160.67383,26.76172c0.34277-0.1543,0.60156-0.3623,0.76953-0.62012
	c0.16504-0.25586,0.24902-0.58496,0.24902-0.97656c0-0.55566-0.17773-0.97168-0.54297-1.27148
	c-0.36719-0.30176-0.90332-0.4541-1.59277-0.4541h-2.15137v5.87305h1.01172v-2.24219h1.20605l1.14844,2.24219h1.10156
	l-1.32129-2.49609L160.67383,26.76172z M159.55957,26.29883h-1.14258v-2.08789h1.13965c0.37109,0,0.6543,0.0957,0.84277,0.28516
	c0.18652,0.18848,0.28125,0.44727,0.28125,0.76953c0,0.31836-0.10059,0.57422-0.29883,0.75879
	C160.18457,26.20605,159.90723,26.29883,159.55957,26.29883z"/>
<polygon fill="#FFFFFF" points="164.7666,26.65918 167.18848,26.65918 167.18848,25.9209 164.7666,25.9209 164.7666,24.21094 
	167.60059,24.21094 167.60059,23.43945 163.75488,23.43945 163.75488,29.3125 167.60938,29.3125 167.60938,28.54883 
	164.7666,28.54883 "/>
<path fill="#FFFFFF" d="M171.17578,23.43945l-2.18555,5.87305h1.07227l0.41992-1.26172h2.39258l0.42383,1.26172h1.07129
	l-2.19727-5.87305H171.17578z M170.74121,27.2793l0.93262-2.81152l0.94434,2.81152H170.74121z"/>
<polygon fill="#FFFFFF" points="177.06836,29.3125 178.08008,29.3125 178.08008,24.21094 179.95508,24.21094 179.95508,23.43945 
	175.21777,23.43945 175.21777,24.21094 177.06836,24.21094 "/>
<rect x="181.85645" y="23.43945" fill="#FFFFFF" width="1.01172" height="5.87305"/>
<polygon fill="#FFFFFF" points="184.67383,23.43945 186.70996,29.3125 187.84863,29.3125 189.89355,23.43945 188.75879,23.43945 
	187.27734,28.35352 185.80469,23.43945 "/>
<polygon fill="#FFFFFF" points="192.63574,26.65918 195.05859,26.65918 195.05859,25.9209 192.63574,25.9209 192.63574,24.21094 
	195.4707,24.21094 195.4707,23.43945 191.625,23.43945 191.625,29.3125 195.47949,29.3125 195.47949,28.54883 192.63574,28.54883 
	"/>
<path fill="#FFFFFF" d="M201.50684,24.64551c0.23242-0.33594,0.58496-0.50586,1.04688-0.50586
	c0.41797,0,0.7373,0.10156,0.9502,0.30078c0.19141,0.18066,0.31152,0.45801,0.35742,0.82617h1.00781
	c-0.08203-0.58203-0.31348-1.04492-0.69043-1.37598c-0.40723-0.35449-0.9541-0.53516-1.625-0.53516
	c-0.4834,0-0.91406,0.11426-1.2793,0.34082c-0.36133,0.22559-0.64355,0.55469-0.84082,0.97754
	c-0.19922,0.43066-0.2998,0.93652-0.2998,1.50488v0.37402c0,0.88672,0.21777,1.5918,0.64551,2.09473
	c0.42871,0.50391,1.00293,0.74902,1.75781,0.74902c0.68164,0,1.23828-0.18066,1.65332-0.53613
	c0.38086-0.33008,0.60742-0.78027,0.67285-1.33789h-1.01074c-0.04395,0.34668-0.16406,0.61328-0.35742,0.79297
	c-0.21582,0.19922-0.53809,0.30078-0.95801,0.30078c-0.47363,0-0.82812-0.17285-1.05371-0.51367
	c-0.21289-0.32812-0.32129-0.83887-0.32129-1.51953v-0.46387C201.16797,25.45312,201.28125,24.97168,201.50684,24.64551z"/>
<path fill="#FFFFFF" d="M210.40039,23.7041c-0.375-0.23145-0.81055-0.34863-1.29492-0.34863
	c-0.48535,0-0.9209,0.11719-1.29492,0.34863c-0.37305,0.23047-0.66797,0.56836-0.875,1.00391
	c-0.20703,0.4375-0.3125,0.95508-0.3125,1.53809v0.30273c0.00195,0.56641,0.10938,1.07422,0.31836,1.50781
	c0.20996,0.43359,0.49707,0.75879,0.87891,0.99316c0.37695,0.22949,0.81152,0.34668,1.29199,0.34668
	c0.48633,0,0.92383-0.11816,1.29883-0.35156c0.37402-0.23145,0.66602-0.56738,0.86816-0.99805
	c0.20508-0.43555,0.30859-0.95117,0.30859-1.53125v-0.27441c0-0.57812-0.10645-1.09375-0.31543-1.5332
	C211.06934,24.27441,210.77539,23.93652,210.40039,23.7041z M210.55859,26.53711c-0.00293,0.66113-0.12695,1.17285-0.36816,1.52246
	c-0.24805,0.36621-0.61133,0.55273-1.07812,0.55273c-0.47363,0-0.84277-0.19238-1.09668-0.57324
	c-0.24121-0.3623-0.36426-0.875-0.36426-1.52344v-0.2998c0.00195-0.6709,0.12402-1.16797,0.37109-1.52051
	c0.25391-0.3623,0.61816-0.54688,1.08301-0.54688c0.4668,0,0.83203,0.18652,1.08496,0.55371
	c0.24414,0.35352,0.36816,0.87012,0.36816,1.53418V26.53711z"/>
<polygon fill="#FFFFFF" points="213.60645,23.43945 213.60645,29.3125 214.61816,29.3125 214.61816,24.96289 217.26953,29.3125 
	218.33594,29.3125 218.33594,23.43945 217.3291,23.43945 217.3291,27.79688 214.67285,23.43945 "/>
<polygon fill="#FFFFFF" points="221.88965,29.3125 222.90137,29.3125 222.90137,24.21094 224.77832,24.21094 224.77832,23.43945 
	220.04004,23.43945 220.04004,24.21094 221.88965,24.21094 "/>
<polygon fill="#FFFFFF" points="227.6123,26.65918 230.03418,26.65918 230.03418,25.9209 227.6123,25.9209 227.6123,24.21094 
	230.44531,24.21094 230.44531,23.43945 226.60059,23.43945 226.60059,29.3125 230.45508,29.3125 230.45508,28.54883 
	227.6123,28.54883 "/>
<polygon fill="#FFFFFF" points="232.29785,23.43945 232.29785,29.3125 233.30957,29.3125 233.30957,24.96289 235.96094,29.3125 
	237.02734,29.3125 237.02734,23.43945 236.01953,23.43945 236.01953,27.79688 233.36426,23.43945 "/>
<polygon fill="#FFFFFF" points="240.58203,29.3125 241.59375,29.3125 241.59375,24.21094 243.46777,24.21094 243.46777,23.43945 
	238.73145,23.43945 238.73145,24.21094 240.58203,24.21094 "/>
<path fill="#FFFFFF" d="M249.75977,23.43945l-2.1875,5.87305h1.07227l0.4209-1.26172h2.3916l0.42578,1.26172h1.07031
	l-2.19922-5.87305H249.75977z M249.32227,27.2793l0.93359-2.81152l0.94434,2.81152H249.32227z"/>
<path fill="#FFFFFF" d="M255.84082,24.66113c0.24707-0.35742,0.61133-0.53809,1.08203-0.53809
	c0.36523,0,0.6582,0.0918,0.87207,0.27441c0.19434,0.16406,0.32812,0.41211,0.39648,0.73828h0.98047
	c-0.08691-0.55762-0.31055-0.99219-0.66504-1.29102c-0.38477-0.32422-0.93066-0.48926-1.62207-0.48926
	c-0.49512,0-0.93262,0.11328-1.29883,0.33691c-0.36426,0.2207-0.64844,0.54785-0.84375,0.97266
	c-0.19824,0.42773-0.29883,0.94336-0.29883,1.53418v0.41699c0.00586,0.56934,0.11328,1.07324,0.32129,1.49707
	c0.20703,0.41504,0.50195,0.73633,0.87598,0.95312c0.37988,0.21875,0.82812,0.33008,1.33203,0.33008
	c0.49023,0,0.93945-0.07324,1.33691-0.2168c0.37598-0.13672,0.67188-0.3252,0.87988-0.56152v-2.27344h-2.15918v0.67969h1.14746
	v1.23242l-0.03613,0.03711c-0.22559,0.22461-0.5957,0.33887-1.10156,0.33887c-0.50977,0-0.9043-0.18262-1.17383-0.54199
	c-0.25879-0.35059-0.38965-0.86523-0.38965-1.53027v-0.3916C255.47949,25.51074,255.60254,25.00293,255.84082,24.66113z"/>
<polygon fill="#FFFFFF" points="262.32617,26.65918 264.74805,26.65918 264.74805,25.9209 262.32617,25.9209 262.32617,24.21094 
	265.16211,24.21094 265.16211,23.43945 261.31445,23.43945 261.31445,29.3125 265.16895,29.3125 265.16895,28.54883 
	262.32617,28.54883 "/>
<polygon fill="#FFFFFF" points="267.01172,23.43945 267.01172,29.3125 268.02344,29.3125 268.02344,24.96289 270.6748,29.3125 
	271.74121,29.3125 271.74121,23.43945 270.73438,23.43945 270.73438,27.79688 268.07812,23.43945 "/>
<path fill="#FFFFFF" d="M275.13379,24.64551c0.23242-0.33594,0.58496-0.50586,1.04688-0.50586
	c0.41699,0,0.7373,0.10059,0.9502,0.2998c0.19238,0.18262,0.31152,0.46094,0.35742,0.82715h1.00781
	c-0.08301-0.58203-0.31445-1.04492-0.69141-1.37598c-0.40625-0.35449-0.95312-0.53516-1.62402-0.53516
	c-0.48438,0-0.91406,0.11426-1.27734,0.34082c-0.36328,0.22559-0.64746,0.55469-0.84277,0.97754
	c-0.19922,0.43262-0.2998,0.93945-0.2998,1.50488v0.37402c0,0.88672,0.2168,1.5918,0.64551,2.09473
	c0.4209,0.49707,1.0127,0.74902,1.75684,0.74902c0.68262,0,1.23926-0.18066,1.6543-0.53613
	c0.38086-0.33008,0.60742-0.78027,0.67285-1.33789h-1.01074c-0.04297,0.34668-0.16406,0.61328-0.3584,0.79297
	c-0.21582,0.19922-0.53809,0.30078-0.95801,0.30078c-0.47266,0-0.82715-0.17285-1.05371-0.51367
	c-0.21289-0.32715-0.32031-0.83789-0.32031-1.51953v-0.46387C274.79492,25.45117,274.9082,24.96973,275.13379,24.64551z"/>
<polygon fill="#FFFFFF" points="281.0752,23.43945 279.97559,23.43945 281.90723,27.2168 281.90723,29.3125 282.93945,29.3125 
	282.95312,27.15918 284.86914,23.43945 283.77539,23.43945 282.4209,26.37207 "/>
<path fill="#FFFFFF" d="M118.35742,10.00342l0.0918-0.1001c1.3667-1.49023,2.44971-3.31055,3.21924-5.40918l0.02979-0.08203h2.08203
	V2.94629h-5.86865V0.625h-1.52344v2.32129h-5.79639v1.46582h2.08154l0.02979,0.08203c0.80859,2.1958,1.8584,4.04053,3.12061,5.48291
	l0.0874,0.10059l-0.10547,0.08105c-1.41699,1.08838-3.22607,1.93701-5.37939,2.52393
	c0.39844,0.49854,0.71533,0.99902,0.94434,1.49219c2.18896-0.70068,4.07959-1.67627,5.62207-2.90039l0.08008-0.06396
	l0.07812,0.06592c1.57129,1.32764,3.48633,2.29053,5.69434,2.86279c0.31152-0.58936,0.67236-1.10645,1.07617-1.5415
	c-2.10889-0.49951-3.94336-1.34375-5.45605-2.51074L118.35742,10.00342z M117.17285,8.93018l-0.09229-0.09668
	c-1.12109-1.17969-2.0127-2.60986-2.6499-4.25098l-0.06592-0.17041h5.52588l-0.06494,0.16943
	c-0.63721,1.67139-1.49951,3.10156-2.5625,4.25098L117.17285,8.93018z"/>
<path fill="#FFFFFF" d="M148.43164,12.59277h-2.16211c-0.40137,0-0.65527-0.07715-0.77734-0.23633
	c-0.11523-0.15039-0.16992-0.44043-0.16992-0.9126V7.64453l0.07129-0.03369c2.01953-0.95361,3.66797-1.87842,4.90234-2.75049
	l-1.14258-1.34375c-1.08105,0.91064-2.30664,1.76074-3.64355,2.52783l-0.1875,0.10742V1h-1.52344v10.42969
	c0,1.00146,0.15625,1.68701,0.46582,2.03711c0.30566,0.34473,0.91211,0.52002,1.80273,0.52002h2.52344
	c0.79688,0,1.35352-0.23535,1.65332-0.7002c0.30566-0.46973,0.51367-1.32812,0.62109-2.55225
	c-0.48145-0.11816-0.94043-0.32422-1.36914-0.61426c-0.05859,0.95898-0.1416,1.58105-0.25391,1.89893
	C149.10938,12.39453,148.8291,12.59277,148.43164,12.59277z"/>
<path fill="#FFFFFF" d="M139.17969,6.64941l0.22119-0.26758v7.74902h1.50928v-9.9165l0.01758-0.02979
	c0.57422-0.95703,1.07178-1.91357,1.48096-2.84473l-1.50293-0.49658c-0.42969,1.0708-1.00391,2.11426-1.70801,3.10303
	c-0.70166,0.98535-1.45215,1.82568-2.23242,2.49951c0.32471,0.4502,0.62598,0.99561,0.89844,1.625
	C138.3208,7.63086,138.7627,7.15332,139.17969,6.64941z"/>
<path fill="#FFFFFF" d="M170.77832,6.80273l0.11719-0.32959l0.11816,0.32861c0.62598,1.72705,1.63965,3.02246,3.01367,3.85254
	c0.22266-0.3457,0.54004-0.74316,0.94531-1.18359l0.12109-0.13184l-0.08984-0.04932
	c-1.34863-0.74219-2.31445-2.0083-2.87109-3.76318l-0.05176-0.1626h3.1084v6.84424c0,0.28125-0.17773,0.44238-0.48633,0.44238
	c-0.75586,0-1.37109-0.00732-1.87207-0.02197c0.24902,0.52686,0.41113,1.03564,0.48242,1.5166
	c1.36523-0.00488,2.26172-0.09814,2.66602-0.27734c0.28027-0.13184,0.47266-0.3125,0.58594-0.55225
	c0.11719-0.24609,0.17578-0.60889,0.17578-1.07812V3.89795h-5l-0.0166-0.10645c-0.13672-0.90088-0.22266-1.76172-0.25586-2.56104
	h-3.76367v1.27832h2.48535l0.00977,0.11523c0.03809,0.48877,0.07129,0.86768,0.09961,1.13574l0.01465,0.13818h-5.24805v10.26172
	h1.53809V9.56592l0.2168,0.23633c0.30078,0.32715,0.55664,0.65381,0.75977,0.97168
	C169.05859,9.96094,170.13477,8.62549,170.77832,6.80273z M166.79004,9.44824l-0.18555,0.10156V5.36377h3.16016l-0.04492,0.15918
	C169.20312,7.34521,168.2168,8.66602,166.79004,9.44824z"/>
<path fill="#FFFFFF" d="M200.7041,5.87305c0.64355,0.49561,1.1543,0.94287,1.51953,1.33154l1.14746-0.9873
	c-0.75293-0.73438-1.9375-1.58691-3.52441-2.53711l-1.03906,0.85791C199.4248,4.9292,200.06152,5.37793,200.7041,5.87305z"/>
<polygon fill="#FFFFFF" points="202.32422,4.72949 203.87695,4.72949 203.87695,1.80713 198.42676,1.80713 198.42676,0.625 
	196.87402,0.625 196.87402,1.80713 191.53906,1.80713 191.53906,4.72949 193.00488,4.72949 193.00488,3.14355 202.32422,3.14355 "/>
<path fill="#FFFFFF" d="M193.5127,10.31299l0.18945-0.11279v3.95947h1.45117v-0.41846h5.10938v0.40381h1.53809v-4.06836
	l0.18652,0.10498c0.49121,0.27686,1.00977,0.53613,1.54492,0.77148c0.34668-0.59277,0.65527-1.05615,0.91797-1.38135
	c-1.09668-0.37451-2.16992-0.90967-3.19238-1.59229c-1.06055-0.70947-1.98535-1.53418-2.75-2.45215h-1.65039
	c-0.5791,0.80566-1.4043,1.61914-2.4541,2.41895c-1.02246,0.77734-2.10742,1.40283-3.22754,1.86133
	c0.31934,0.37988,0.60254,0.80713,0.84473,1.27393C192.50977,10.87061,193.01074,10.6123,193.5127,10.31299z M200.2627,12.44873
	h-5.10938v-1.82178h5.10938V12.44873z M195.31934,9.12305c0.95898-0.70264,1.74609-1.44678,2.34082-2.21143l0.09668-0.12451
	l0.09961,0.12256c0.5957,0.73779,1.42578,1.48193,2.46777,2.21143l0.3252,0.22754h-5.6377L195.31934,9.12305z"/>
<path fill="#FFFFFF" d="M192.99609,7.32617c0.65918-0.38965,1.31445-0.86914,1.94727-1.42627
	c0.61914-0.54395,1.14844-1.11621,1.57812-1.70215l-1.44141-0.49316c-0.71973,0.96826-1.76562,1.7832-3.11426,2.42529
	C192.37598,6.52344,192.72168,6.9248,192.99609,7.32617z"/>
<path fill="#FFFFFF" d="M222.63965,4.07666c-0.0791-0.17871-0.22754-0.47852-0.45117-0.90918l-0.09375-0.18262h2.12793V1.77832
	h-3.27832l0.08984-0.18066c0.08984-0.1792,0.19141-0.40283,0.30273-0.66748l-1.42773-0.38184
	c-0.50488,1.24609-1.21191,2.27295-2.10254,3.05566c0.41113,0.22314,0.82227,0.49463,1.22559,0.80957
	c0.4043-0.40527,0.78418-0.86719,1.13086-1.37451l0.03809-0.0542h0.38086l0.03613,0.05957
	c0.35352,0.57666,0.60742,1.08496,0.75781,1.5127L222.63965,4.07666z"/>
<path fill="#FFFFFF" d="M227.375,10.96826l-0.29785-0.15381h0.01953c-0.6084-0.3457-1.11816-0.69824-1.51953-1.05029
	l-0.04297-0.03711V8.2334h3.00391v1.16309c0,0.20508-0.13281,0.32715-0.35547,0.32715c-0.45508,0-0.79785-0.00537-1.03809-0.01562
	c0.22949,0.44092,0.38574,0.81201,0.46777,1.10645c0.8916-0.00098,1.52832-0.07568,1.89355-0.22217
	c0.23242-0.09424,0.38477-0.22266,0.46777-0.39258c0.08789-0.17822,0.13184-0.44824,0.13184-0.80322V6.99805h-4.57129V6.0415
	h5.30664V4.77734h-5.30664V3.9126l0.03223-0.03564c0.25488-0.28369,0.46875-0.56396,0.63574-0.83301l0.03711-0.05908h0.84473
	l0.03613,0.05811c0.36426,0.57715,0.60352,1.04492,0.72754,1.42432l1.32129-0.4126
	c-0.09375-0.21777-0.24805-0.51367-0.45996-0.88232l-0.10742-0.1875h2.49902V1.77832h-4.18262l0.08594-0.1792
	c0.11035-0.22949,0.21191-0.4624,0.30371-0.69385l-1.48242-0.35889c-0.35449,0.94385-0.81934,1.75098-1.38281,2.40039
	l-0.0332,0.03809h0.00879l-0.19531,0.21436V3.18018l-0.01758,0.01807c-0.16797,0.16797-0.30664,0.29932-0.41797,0.39746
	c0.12598,0.07227,0.22363,0.12939,0.29297,0.17139l0.38574,0.23193h-0.57031v0.77832h-5.62305V6.0415h5.62305v0.95654h-4.68652
	v3.85938h1.61035V8.2334h3.07617v1.20996L223.86426,9.479c-0.62305,0.71045-1.48633,1.34375-2.56836,1.88232
	c-1.01367,0.50391-2.11328,0.88623-3.27344,1.13867c0.35449,0.375,0.66016,0.79395,0.9082,1.24854
	c1.86426-0.52344,3.46484-1.35938,4.75781-2.48535l0.20703-0.18018v3.09082h1.63867v-3.03516l0.2041,0.16504
	c1.36621,1.10645,2.92773,1.89502,4.64258,2.34473c0.24316-0.4668,0.55078-0.9082,0.91504-1.31494
	c-1.28418-0.24561-2.49316-0.64941-3.60156-1.20215l0.00195,0.00781l-0.25-0.13281
	C227.42188,10.99365,227.39844,10.98096,227.375,10.96826z"/>
<path fill="#FFFFFF" d="M246.93262,4.13672l1.2373-0.95215c-0.45508-0.63818-1.17871-1.36572-2.15332-2.16553l-1.14062,0.85742
	C245.82031,2.7041,246.51172,3.46338,246.93262,4.13672z"/>
<path fill="#FFFFFF" d="M251.04199,13.8999c2.06934,0.08545,4.30566,0.07227,6.65234-0.03809
	c0.0957-0.50684,0.24707-0.99463,0.45117-1.45508c-2.32422,0.16846-4.70996,0.20752-7.09863,0.11377
	c-1.58594-0.05908-2.66895-0.56982-3.21777-1.51855l-0.0166-0.02881V6.34912h-3.06738v1.36523h1.65918v3.39795l-0.04395,0.03711
	c-0.5166,0.44238-1.10645,0.88135-1.75391,1.30615l0.70605,1.49756c0.60254-0.51709,1.21289-1.07568,1.81641-1.66162
	l0.09961-0.09717l0.08594,0.11035c0.41797,0.53809,0.9248,0.93213,1.50684,1.17188
	C249.41113,13.72021,250.1582,13.86279,251.04199,13.8999z"/>
<path fill="#FFFFFF" d="M248.20215,5.63428v0.00049c0.22168,0.23828,0.3916,0.43359,0.5166,0.59229
	c0.24707-0.22607,0.47754-0.44971,0.68555-0.66602l0.21484-0.22412v5.83789h8.22852V9.9541h-3.17188V8.69482h2.46484V7.53174
	h-2.46484V6.30127h2.52344V5.13818h-2.52344V3.96533h2.91211V2.72998h-2.69043l0.09473-0.18262
	c0.30957-0.59326,0.55176-1.0708,0.72168-1.42236l-1.6582-0.32129c-0.15039,0.57324-0.35059,1.19336-0.59473,1.84521
	l-0.03027,0.08105h-1.98145l0.09766-0.18359c0.33301-0.62549,0.56934-1.10107,0.70508-1.41748l-1.5-0.43408
	c-0.33496,0.85156-0.78906,1.67139-1.35156,2.43848c-0.55273,0.75342-1.1543,1.39258-1.79004,1.90137
	C247.78125,5.1958,247.97949,5.39697,248.20215,5.63428z M251.07031,3.96533h2.16797v1.17285h-2.16797V3.96533z M251.07031,6.30127
	h2.16797v1.23047h-2.16797V6.30127z M251.07031,8.69482h2.16797V9.9541h-2.16797V8.69482z"/>
<path fill="#FFFFFF" d="M283.84473,11.11426c-0.01172,0.6123-0.03809,1.00586-0.07812,1.19873
	c-0.07031,0.33838-0.23438,0.40967-0.36035,0.40967h-0.47559c-0.15137,0-0.25586-0.04443-0.30859-0.13232
	c-0.03125-0.05176-0.06152-0.14502-0.06152-0.4541V8.81006h2.2207V7.50293h-7.9834v1.30713h1.63867l-0.00879,0.13379
	c-0.07812,1.1416-0.32324,2.03027-0.72754,2.64111c-0.38379,0.58203-1.09668,1.04346-2.12012,1.37402
	c0.13477,0.14648,0.27441,0.32227,0.41699,0.52588c0.16211,0.23145,0.2832,0.44141,0.36035,0.62695
	c0.63867-0.22705,1.18066-0.49414,1.61426-0.79492c0.45312-0.31494,0.81152-0.70117,1.06543-1.14844
	c0.25586-0.45215,0.44336-0.93066,0.55664-1.42285c0.1123-0.4917,0.19434-1.10352,0.24219-1.81885l0.00781-0.1167h1.33789v3.34033
	c0,0.73828,0.0957,1.24463,0.28613,1.50586c0.18066,0.24756,0.56641,0.37354,1.14551,0.37354h0.99512
	c0.4873,0,0.82227-0.15967,1.02539-0.48877c0.20703-0.3335,0.34668-0.97754,0.41504-1.9165
	c-0.21094-0.05859-0.43945-0.14209-0.69727-0.25342C284.15723,11.28662,283.9873,11.20068,283.84473,11.11426z"/>
<path fill="#FFFFFF" d="M275.38867,1.19727l-0.22949,0.06201h-3.07617v12.90039h1.26367V9.39258l-0.05078-0.09082l0.05078,0.00293
	V2.56641h1.43555l-0.03516,0.15332c-0.29102,1.2583-0.56641,2.32129-0.81934,3.16016
	c0.66113,0.82178,0.99609,1.70361,0.99609,2.62256c0,0.49609-0.08496,0.78906-0.26855,0.92285
	c-0.11621,0.08203-0.27246,0.13184-0.47852,0.15332l-0.0127,0.00049c-0.16406,0-0.31055-0.00195-0.44043-0.00586
	c0.17188,0.37158,0.27246,0.78857,0.2998,1.24365c0.29785,0.00439,0.56641-0.00586,0.80566-0.03076
	c0.32812-0.05371,0.60156-0.15332,0.80664-0.29541c0.39453-0.28027,0.59473-0.88184,0.59473-1.78662
	c0-1.02393-0.35449-1.99707-1.05469-2.89258l-0.04297-0.05469l0.02441-0.06543c0.17047-0.46747,0.56714-1.70422,1.1748-3.66205
	V1.97559h0.01672c0.02026-0.06537,0.0387-0.12445,0.05945-0.19141L275.38867,1.19727z"/>
<path fill="#FFFFFF" d="M277.67773,4.88818v1.29736h6.03613V4.87354h1.13965V2.22559h-3.5332V0.68262h-1.45117v1.54297h-3.28711
	v2.6626H277.67773z M277.90332,3.4751h5.58496v1.46094h-5.58496V3.4751z"/>
</svg>
