<?xml version="1.0" encoding="utf-8"?>
<!-- Generator: Adobe Illustrator 21.0.0, SVG Export Plug-In . SVG Version: 6.00 Build 0)  -->
<svg version="1.1" id="Layer_1" xmlns="http://www.w3.org/2000/svg" xmlns:xlink="http://www.w3.org/1999/xlink" x="0px" y="0px"
	 viewBox="0 0 450 310" style="enable-background:new 0 0 450 310;" xml:space="preserve">
<style type="text/css">
	.st0{fill:none;stroke:#616161;stroke-width:0.5;}
	.st1{fill:#696969;}
	.st2{font-family:'SourceHanSansTC-Light-B5pc-H';}
	.st3{font-size:9.6px;}
	.st4{font-size:10px;}
	.st5{fill:none;stroke:#00D761;stroke-width:3;stroke-dasharray:5,5;}
	.st6{fill:#00D761;}
	.st7{fill:#FFDB45;}
	.st8{opacity:0.7;enable-background:new    ;}
	.st9{font-family:'Helvetica';}
	.st10{font-size:8.4px;}
	.st11{opacity:0.7;fill:none;stroke:#CCCCCC;stroke-dasharray:2,2;enable-background:new    ;}
	.st12{fill:none;}
	.st13{fill:#F40000;}
	.st14{font-size:12px;}
	.st15{fill:none;stroke:#E90000;}
	.st16{fill:none;stroke:#E91C24;stroke-width:2;}
	.st17{fill:#E91C24;}
</style>
<path class="st0" d="M44.6,275.5h376.7"/>
<path class="st0" d="M39.6,254V18.4"/>
<line class="st0" x1="142.3" y1="275.7" x2="142.3" y2="281.7"/>
<line class="st0" x1="323.2" y1="275.7" x2="323.2" y2="281.7"/>
<line class="st0" x1="39.1" y1="217.2" x2="33.1" y2="217.2"/>
<line class="st0" x1="39.1" y1="61.8" x2="33.1" y2="61.8"/>
<text transform="matrix(1 0 0 1 170.1998 291.8427)" class="st1 st2 st3">營業額 ╱ 單位：千元新臺幣</text>
<text transform="matrix(6.123234e-17 1 -1 6.123234e-17 22.5469 94.4078)" class="st1 st2 st3">家</text>
<text transform="matrix(6.123234e-17 1 -1 6.123234e-17 22.5469 104.4922)" class="st1 st2 st3">數　╱　單位 ︰ 家</text>
<text transform="matrix(1 0 0 1 129.8187 291.843)" class="st1 st2 st4">100M</text>
<text transform="matrix(1 0 0 1 311.0875 291.843)" class="st1 st2 st4">115M</text>
<text transform="matrix(1 0 0 1 19.5483 220.4393)" class="st1 st2 st4">8k</text>
<text transform="matrix(1 0 0 1 19.5483 65.0007)" class="st1 st2 st4">9k</text>
<path class="st5" d="M268.3,252.7L189.8,68.1l105.8,16.2l-2.3,13.2L301,111l-72,19.1l-20.9,30.4l-26.6,32.1l-16.2,16.6l-20.9,12.3
	l9.4,5.8"/>
<circle class="st6" cx="268.3" cy="252.7" r="10"/>
<circle class="st6" cx="189.8" cy="68.1" r="5"/>
<circle class="st6" cx="295.6" cy="84.3" r="5"/>
<circle class="st6" cx="293.3" cy="97.5" r="5"/>
<circle class="st6" cx="301" cy="111" r="5"/>
<circle class="st6" cx="229" cy="130.1" r="5"/>
<circle class="st6" cx="208.1" cy="160.4" r="5"/>
<circle class="st6" cx="181.4" cy="192.5" r="5"/>
<circle class="st6" cx="165.2" cy="209.1" r="5"/>
<circle class="st6" cx="144.3" cy="221.4" r="5"/>
<circle class="st6" cx="153.7" cy="227.2" r="5"/>
<polygon class="st7" points="99.1,-40.1 99.1,-40.1 99.1,-40.1 "/>
<polygon class="st7" points="112.1,-40.4 112.1,-40.4 112.1,-40.4 "/>
<polygon class="st6" points="268.3,153.6 268.3,153.6 268.3,153.6 "/>
<polygon class="st6" points="189.8,145.2 189.8,145.2 189.8,145.2 "/>
<polygon class="st6" points="295.6,147.2 295.6,147.2 295.6,147.2 "/>
<polygon class="st6" points="293.3,148.8 293.3,148.8 293.3,148.8 "/>
<polygon class="st6" points="301,150.1 301,150.1 301,150.1 "/>
<polygon class="st6" points="229,151.3 229,151.3 229,151.3 "/>
<polygon class="st6" points="208.1,152.8 208.1,152.8 208.1,152.8 "/>
<polygon class="st6" points="181.4,155.3 181.4,155.3 181.4,155.3 "/>
<polygon class="st6" points="165.2,155.9 165.2,155.9 165.2,155.9 "/>
<polygon class="st6" points="144.3,156.3 144.3,156.3 144.3,156.3 "/>
<polygon class="st6" points="153.7,156 153.7,156 153.7,156 "/>
<text transform="matrix(1 0 0 1 300.5143 257.3457)" class="st8 st9 st10">2008</text>
<text transform="matrix(1 0 0 1 156.4584 32.5261)" class="st8 st9 st10">2009</text>
<text transform="matrix(1 0 0 1 303.8542 42.7081)" class="st8 st9 st10">2010</text>
<text transform="matrix(1 0 0 1 325.7819 75.4889)" class="st8 st9 st10">2011</text>
<text transform="matrix(1 0 0 1 338.3737 120.5085)" class="st8 st9 st10">2012</text>
<text transform="matrix(1 0 0 1 209.9185 95.7039)" class="st8 st9 st10">2013</text>
<text transform="matrix(1 0 0 1 160.759 134.993)" class="st8 st9 st10">2014</text>
<text transform="matrix(1 0 0 1 192.2329 234.5993)" class="st8 st9 st10">2015</text>
<text transform="matrix(1 0 0 1 146.9753 258.8973)" class="st8 st9 st10">2016</text>
<text transform="matrix(1 0 0 1 86.0338 228.1188)" class="st8 st9 st10">2017</text>
<text transform="matrix(1 0 0 1 105.1359 258.009)" class="st8 st9 st10">2018</text>
<line class="st11" x1="268.3" y1="252.7" x2="309.9" y2="254.2"/>
<line class="st11" x1="189.8" y1="68.1" x2="165.8" y2="29.3"/>
<line class="st11" x1="295.6" y1="84.3" x2="313.2" y2="39.5"/>
<line class="st11" x1="293.3" y1="97.5" x2="334.8" y2="72.3"/>
<line class="st11" x1="301" y1="111" x2="334.8" y2="115.6"/>
<line class="st11" x1="229" y1="130.1" x2="219.3" y2="92.5"/>
<line class="st11" x1="208.1" y1="160.4" x2="181.4" y2="142"/>
<line class="st11" x1="181.4" y1="192.5" x2="201.6" y2="231.4"/>
<line class="st11" x1="165.2" y1="209.1" x2="156.3" y2="255.7"/>
<line class="st11" x1="144.3" y1="221.4" x2="95.4" y2="224.9"/>
<line class="st11" x1="153.7" y1="227.2" x2="114.5" y2="254.8"/>
<rect x="258.8" y="140.2" transform="matrix(0.9129 -0.4083 0.4083 0.9129 -49.9502 123.7761)" class="st12" width="12.3" height="77.3"/>
<text transform="matrix(0.4083 0.9129 -0.9129 0.4083 246.1261 144.9902)" class="st13 st2 st14">時間前進方向</text>
<path class="st15" d="M358.7,126.1h-63.3c-3.5,0-6.3-2.8-6.3-6.3v-11c0-3.5,2.8-6.3,6.3-6.3h63.3c3.5,0,6.3,2.8,6.3,6.3v11
	C365,123.2,362.2,126.1,358.7,126.1z"/>
<g>
	<rect x="321.5" y="132.9" class="st12" width="128.5" height="46"/>
	<text transform="matrix(1 0 0 1 321.5225 140.8575)"><tspan x="0" y="0" class="st13 st2 st4">此點為 2012 年時，</tspan><tspan x="0" y="12" class="st13 st2 st4">營業額(X軸) 與家數(Y軸)</tspan><tspan x="0" y="24" class="st13 st2 st4">相對其它年度的位置</tspan></text>
</g>
<g>
	<g>
		<path class="st16" d="M271.4,228.1L200.6,62.3c-2.5-5.9,2.4-12.4,8.8-11.4l57.8,8.5c6.7,1,9.4,9.2,4.7,14L147.4,199"/>
		<g>
			<polygon class="st17" points="144.9,194.4 142.3,204.1 151.9,201.5 			"/>
		</g>
	</g>
</g>
</svg>
